<svg viewBox="0 0 181 128" fill="none" xmlns="http://www.w3.org/2000/svg">
<path d="M15.597 88.547c-1.61 0 1.341-1.566 3.018-2.348 1.678-.842 19.12-.671 23.48-.671 4.36 0 .336 3.019-1.341 3.019H15.597Z" fill="#4A94E8" stroke="#4A94E8" stroke-width="0.671" stroke-linecap="round" stroke-linejoin="round"></path>
<path d="M18.615 72.446c-.537 3.757-.223 10.958 0 14.088 3.757 1.342 8.945.56 11.07 0 .223-3.913.804-12.813 1.341-17.107.67-5.367 3.354-6.037 9.392-8.72 6.038-2.684 7.38-20.127 5.031-20.797-5.031-1.342-5.702 4.696-6.373 9.727-.536 4.025-4.025 6.373-5.702 7.044 2.46-11.18 5.031-33.14-4.36-31.53-9.393 1.61-10.846 26.163-10.399 38.239-5.367-1.007-6.708-4.36-7.38-9.392-.67-5.032-1.676-11.405-2.347-14.088-.537-2.147-2.46-2.684-3.355-2.684-.782-.223-2.482.269-3.018 4.025-.671 4.696-.671 18.449 2.348 23.816 4.561 3.757 11.069 6.485 13.752 7.38Z" fill="#B4D5FA" stroke="#B4D5FA" stroke-width="0.671"></path>
<path d="M6.875 39.91c-1.006-.336-2.952-.067-2.683 3.69.335 4.695 1.006 13.752 2.683 17.777m1.677-13.082c0 1.678 0 12.411 4.36 15.43 3.49 2.415 5.703 3.02 6.374 3.02m1.677-6.039c.336-8.274 1.811-26.029 5.032-30.86 3.22-4.83 6.037-3.13 7.044-1.676m-1.342 3.354c.268 4.025-.335 12.411-.671 16.1m-4.025-3.354c-.335 6.709-1.677 17.778-2.013 21.803m2.013 3.355c0 4.025-.671 12.41-1.006 16.1m7.379-23.815c4.025-2.348 7.715-4.026 8.721-8.386m-2.012-1.342c.223-3.354 1.207-10.197 3.354-10.733m4.696 2.348-1.677 2.012 2.012.335m-20.46-23.48.335 2.684m-1.678.67-1.341-2.012M16.938 47.96l1.677 1.677m-2.348.336h2.348m0 .67c-.112 0-.47.269-1.006 1.342M2.179 35.55l1.677 2.013m1.007-.671v-2.348M.837 61.042h2.348L1.508 63.39" stroke="#4A94E8" stroke-width="0.671" stroke-linecap="round" stroke-linejoin="round"></path>
<path d="M129.383 101.964c-2.46 0 2.05-2.392 4.613-3.588 2.563-1.286 29.213-1.025 35.875-1.025 6.663 0 .513 4.613-2.05 4.613h-38.438Z" fill="#4A94E8" stroke="#4A94E8" stroke-width="1.025" stroke-linecap="round" stroke-linejoin="round"></path>
<path d="M133.996 77.364c-.82 5.74-.342 16.742 0 21.525 5.74 2.05 13.667.854 16.913 0 .341-5.98 1.23-19.578 2.05-26.138 1.025-8.2 5.125-9.225 14.35-13.325s11.275-30.75 7.688-31.776c-7.688-2.05-8.713 7.175-9.738 14.863-.82 6.15-6.15 9.738-8.713 10.763 3.759-17.084 7.688-50.636-6.662-48.176-14.351 2.46-16.571 39.976-15.888 58.426-8.2-1.538-10.25-6.663-11.275-14.35-1.025-7.688-2.563-17.426-3.588-21.526-.82-3.28-3.758-4.1-5.125-4.1-1.196-.341-3.792.41-4.612 6.15-1.025 7.176-1.025 28.188 3.587 36.388 6.97 5.74 16.913 9.909 21.013 11.276Z" fill="#B4D5FA"></path>
<path d="M116.058 27.65c-1.537-.512-4.51-.102-4.1 5.638.513 7.175 1.538 21.013 4.1 27.163m2.563-19.988c0 2.563 0 18.963 6.662 23.575 5.331 3.69 8.713 4.613 9.738 4.613m2.563-9.225c.512-12.642 2.767-39.77 7.687-47.15 4.92-7.38 9.225-4.784 10.763-2.563m-2.05 5.125c.41 6.15-.513 18.963-1.025 24.6m-6.15-5.125c-.513 10.25-2.563 27.163-3.075 33.313m3.075 5.125c0 6.15-1.025 18.963-1.538 24.6m11.275-36.387c6.15-3.588 11.788-6.15 13.326-12.813m-3.075-2.05c.341-5.125 1.845-15.58 5.125-16.4m7.175 3.587-2.563 3.075 3.075.513M148.346 1l.513 4.1m-2.563 1.025-2.05-3.075m-12.813 36.9 2.563 2.563m-3.588.513h3.588m0 1.025c-.171 0-.718.41-1.538 2.05m-23.575-25.113 2.563 3.075m1.537-1.025V19.45m-6.15 40.488h3.588l-2.563 3.588" stroke="#4A94E8" stroke-width="1.025" stroke-linecap="round" stroke-linejoin="round"></path>
<path d="M63.227 68.086c-1.019 2.462-2.695 7.762-3.09 13.107m.071 5.006c-1.788-1.9-5.433-6.24-5.702-8.386m5.702 8.386c-.193-1.614-.197-3.312-.072-5.006m.072 5.006c.058-1.45 2.037-3.735 3.02-4.696-.471-.314-1.5-.554-3.092-.31m.072 5.006c-.093-.743.525-2.105 3.355-2.543m-9.392 3.55c.447-3.802 2.884-11.003 9.056-9.393m-9.056 9.392c-.342 0-.678-.009-1.007-.026m1.007.026c.388-.125.84-.256 1.342-.386m-11.74-2.968c1.151 1.047 4.557 3.074 9.391 3.328m18.784.026c2.029.922 2.917 2.857 3.027 5.193m-3.026-5.193c-2.63-1.195-5.756-1.547-8.722-1.472m8.721 1.472c-.529-1.117-1.242-1.92-2.012-2.485m-5.032 3.156a8.989 8.989 0 0 0-2.347 1.323M50.48 104.312c-.742-1.921-1.539-4.746-1.867-7.715m1.867 7.715c-.708.708-1.219 2.625-1.534 4.361m1.534-4.361c-1.006 3.578-1.677 11.136 3.69 12.746 1.823.547 3.389.619 4.696.419m-8.386-13.165c.56 3.69 2.683 11.405 6.709 12.746m-1.007-30.405c.336-4.624 3.69-13.2 14.424-10.517l2.885 1.677m-17.309 8.84c-.232.055-.456.11-.67.166m.67-.166a35.55 35.55 0 0 1 7.044-.92m2.348-6.914c-.223-3.018.47-8.251 5.032-5.031m-5.032 5.031c.03.805-.435 3.476-.67 4.71m.67-4.71c4.36-3.454 14.29-7.815 19.12 2.374m-21.468-2.038c-.176.576-1.04 1.79-3.09 2.038m0 0c-1.813.279-4.358 1.186-7.643 3.329-3.762 2.453-4.392 7.44-3.88 12.075m2.538-13.082c-1.677 2.013-4.025 7.581 0 13.753m2.012-10.09c-2.152.825-4.897 2.873-6.515 6.4m1.82 19.12c-4.07-8.72-3.731-14.952-1.82-19.12m-1.87 15.095c1.23-5.032 4.629-14.357 8.385-11.405.095 2.635 1.172 8.585 4.557 14.088M46.649 93.578c-5.212 1.61.83 5.144 4.503 6.709 1.977 7.417 6.638 12.482 8.721 14.088a26.795 26.795 0 0 1-2.152-3.019M46.649 93.578c1.245-.863 3.77-2.152 5.845-1.955m1.677.614c2.415-4.026 5.478-2.491 6.708-1.221m-6.708 1.22c-.49-.367-1.064-.555-1.677-.613m1.677.614c-.56 3.13-1.879 8.855-2.684 6.708-.805-2.147.336-5.776 1.007-7.322m1.677.614c-1.074 5.366 1.342 9.634 2.683 11.097m-2.683-11.097c2.864-7.38 5.134-5.319 6.254-2.58m-6.254 2.58c1.204-.467 3.314-1.048 4.696-.782m-10.253 5.142c.322-2.195 1.648-6.375 4.55-8.587m2.349-1.191a7.047 7.047 0 0 0-2.349 1.191m7.715 3.006a8.39 8.39 0 0 0-.742 1.382m.742-1.382a7.884 7.884 0 0 1 1.678-1.817m-1.678 1.817a11.416 11.416 0 0 0-.454-1.36m-7.26-1.646c1.27 3.61 3.97 10.41 6.232 13.692m1.482 1.632a13.06 13.06 0 0 0 1.39 2.32m-1.39-2.32a16.336 16.336 0 0 1-1.482-5.395m1.482 5.395c-.455-.298-.956-.871-1.482-1.632m.74-9.304c-.184-.539-.655-.825-1.27-.943m1.27.943c-.72 1.696-.916 3.628-.74 5.54m-2.543 5.396c-.937-2.767-1.847-9.017 2.013-11.88m-2.013 11.88c-.205-1.798.016-5.395 2.543-5.395m-2.543 5.395c-.27 1.866-.474 6.082.867 8.022m-.867-8.022c.575-.152 1.44-.441 2.013-.782m-2.013.782c.47 1.47 1.55 3.912 3.006 5.339m-11.246-3.69c.492-.442 1.625-.94 2.873-.201m1.007.872a4.068 4.068 0 0 0-1.007-.872m-2.873 6.239c.06-.609.17-1.455.333-2.348m-3.162 2.683c1.9 1.454 6.373 3.824 9.057 1.677l2.879-1.677m-9.107 4.361c.51-1.454 2.337-4.696 5.557-6.038m-5.224-1.006c.847.223 3.077.402 5.224-.671m9.392 6.708a4.975 4.975 0 0 1-1.007 1.137m-11.069-11.065c1.342 3.477 4.696 10.883 7.38 12.695m0 0c.782 2.544 4.629 7.564 13.752 7.296 4.953-.146 7.56-1.945 8.819-4.025m-22.571-3.271a18.847 18.847 0 0 0 2.707 2.265m-2.707-2.265c1.632-.25 2.862-.925 3.69-1.63m19.79-.13c-3.22.805-5.863.335-6.782 0m6.782 0c.076.398.12.853.117 1.341m-.117-1.341c-1.342-4.026-5.474-3.467-7.372-2.684-1.322.447-3.47 2.616-1.483 7.715m8.855-5.031c.468-.491.755-1.486.919-2.684m-.92 2.684c-.553-.358-.63-2.816-.468-6.036m.469 6.036c2.877-.806 4.795-2.589 6.038-4.78m-7.38 6.121a18.502 18.502 0 0 1-2.585 2.701m-21.23 3.672c1.896-.404 4.885-1.565 7.174-3.689m3.224-6.709a9.556 9.556 0 0 1-.079.897m-4.953-.897c-.878 1.677-2.305 5.367-.982 6.709m0 0c4.247 2.939 10.846 5.074 16.846.017m-15.864-3.912c-.025 1.074.302 3.358 1.808 3.895m0 0c1.108-1.029 2.053-2.284 2.63-3.788m.594 4.794c1.616-.562 4.405-1.874 6.655-3.77m3.072-3.945c.513 1.577 1.452 5.129 1.105 6.726m-1.105-6.726c-.387.969-1.003 1.867-1.75 2.684m1.75-2.684c1.1-2.75 3.804-4.698 5.974-6.886M71.95 91.623c-1.205 5.07-6.468 6.237-8.257 12.689m8.256-12.69c1.68 1.045 4.806 4.693 3.87 10.93m-3.87-10.93c.598-2.512 3.456-2.4 6.472-.97m-15.193 16.076a8.928 8.928 0 0 1-.957-1.074m.957 1.074c.103-.882.261-1.683.465-2.416m-.465 2.416c-1.727-8.264 1.52-14.639 3.36-16.793m-3.36 16.793c.537-1.824 2.202-3.022 2.967-3.394m-2.967 3.394c.86-.582 2.934-1.745 4.36-1.745 1.428 0-5.219-1.62-8.72-2.431m4.36 4.176c.54.509 1.106.888 1.678 1.099m-2.349-18.628c-.528 2.46-1.222 7.037-1.133 11.088m1.133-11.088.671-3.466m-.957 19.921c-.56-1.435-.802-3.335-.847-5.367m0 0c-.181-2.236.153-7.221 2.94-9.271.872-.641 1.61-.965 2.224-1.08m-2.895 14.376c-.027-1.963.35-5.262 1.695-7.715m3.543-3.019c-1.495 1.336-3.499 5.719.441 12.569m-.441-12.569c-.354 2.125-.453 7.246 1.985 10.734M68.93 93.578c.246 1.79 1.502 5.501 4.562 6.038m-4.562-6.038c.899 1.338 3.367 2.974 6.044-1.18m-6.044 1.18a4.72 4.72 0 0 0-.957.352m.957-.352c.14-.679.35-1.411.64-2.123m-.199 14.692c-1.048 1.049-2.127 1.73-3.125 1.855a2.831 2.831 0 0 1-1.341-.175m4.466-1.68a15.164 15.164 0 0 0 1.544-1.835m0 0c.981-1.36 1.877-2.987 2.577-4.696m0 0c.99-2.417 1.587-4.998 1.483-7.218m0 0c.97.277 2.15 1.317 2.34 3.537m3.288-4.034c.466.312.924.65 1.365 1.006m-1.365-1.006a17.167 17.167 0 0 0-2.183-1.248m2.183 1.248a24.561 24.561 0 0 0-1.133-1.248m-13.895-7.138c-.665 3.131-1.634 10.13-.188 13.082m.188-13.082c-.233 0-.456.005-.67.014m.67-.014c1.342-1.447 6.172-3.339 14.76.671 1.453.012 4.226 1.03 3.689 5m-18.449-5.67 2.398-5.478m-2.398 5.477a77.83 77.83 0 0 0 .619 4.361m-.619-4.36c.976-.126 2.788.048 4.36 1.204m-1.962 9.21c-1.113.553-1.956 1.517-2.586 2.667m2.586-2.666c-.513-.526-.989-2.127-1.386-3.996m-3.36-4.202-2.802 3.924m-1.028 12.045c.187.287-.083.584-.53.85m-1.146 8.804c1.115.257 3.217.553 4.549.196m-.696-4.824c.061 1.373.355 2.379.696 3.076m.957-1.802c.38 1.789 2.053 5.232 5.703 4.696m0 0 1.79-2.348m-1.79 2.348c.316.912 1.361 2.663 3.018 2.374m-9.678-5.268c.333.681.71 1.068.957 1.217-.213.251-.549.422-.957.531m0-1.748c-.876.033-1.69-.424-2.41-1.131m3.703-25.017c.401-.063.847-.106 1.341-.127m-1.341.127c-.107-2.228.732-5.828 4.41-5.618m2.942.781c-1.14-.493-2.113-.734-2.942-.781m13.368 2.794c-1.029-1.217-2.77-2.6-4.796-3.019m-5.63 4.36c.8-1.273 2.296-2.885 4.06-3.298m4.688 2.318c-1.581-2.18-3.226-2.661-4.688-2.318m.999-2.739-2.482 1.677m0 0h3.053m0 0c-2.38-.492-5.15.35-7.615 4.36 1.307.1 3.413.624 5.09 1.898m2.525-6.258 3.118-.67M78.42 89.656a11.082 11.082 0 0 0-1.875-1.346m1.875 1.346c.34.296.69.627 1.05.996m-1.05-.996c-.024-.367-.07-.823-.143-1.346m-3.302-9.436c1.728 2.522 2.673 5.856 3.124 8.33m-1.554 1.106a6.476 6.476 0 0 0-.258-1.132m.258 1.132c-3.636-2.019-5.87.414-6.976 3.144m19.15-8.946a21.1 21.1 0 0 0-3.018-.885M74.02 84.072a15.792 15.792 0 0 0-3.496 3.804m3.496-3.805c.99.753 1.83 1.766 2.267 3.108M74.02 84.07c1.304-.274 3.304-.132 4.973 1.221m-4.973-1.22c2.78-2.15 6.645-3.509 11.681-2.448m-3.733 11.283c2.382 1.928 4.277 4.43 4.404 6.709.152 2.738-1.282 4.717-3.083 6.531m-1.32-13.24c-.072-1.958-.409-3.512-.915-4.739m-14.86-.292c.969-.594 3.191-1.425 4.33 0m-4.33 0c.12.696.251 1.395.392 2.06m3.938-2.06a15.119 15.119 0 0 0-1.594 3.14c-.248-.587-.995-1.336-2.344-1.08m3.35-5.216c1.55-.273 4.992-.162 6.351 2.459m-17.42 15.373.993 6.121m-2.67-1.945c.923 1.958 4.079 6.224 9.803 9.226m2.378 1.104a27.426 27.426 0 0 1-2.378-1.104m0 0c.913.026 2.937-.139 4.956-.882m-4.956.882a9.036 9.036 0 0 0 .516-2.024m1.862 7.824c1.553-.715 3.7-2.328 4.872-4.776m-.223-8.305c.368.817.632 1.6.805 2.348m-9.92-3.194c.98 1.43 2.992 2.943 5.41 1.852m5.503-7.127a31.649 31.649 0 0 1-.843 1.76c-.831 1.609-1.659 2.812-2.465 3.69m3.308-5.45a23.68 23.68 0 0 0 .727-1.847m-6.976-9.25c3.213 1.826 7.86 8.027.746 18.224m0 0c.703-.317 1.44-.854 2.195-1.677m5.91-17.35-1.105 5.283m1.105-5.282c.492 1.05.98 2.583 1.243 4.423m-2.348.859c.072.83.005 1.827-.263 3.01m.263-3.01 2.348-.86m-4.838 15.946c.542 2.341.195 4.333-.582 5.957m.582-5.957c.413-.469.795-.942 1.149-1.418m-3.464-1.601-1.79 2.348m0 0c-.189.438-.257 1.204.195 2.014m1.033 2.708a11.42 11.42 0 0 0 1.544-.697c-1.415-.584-2.189-1.314-2.577-2.011m-8.645-.812c1.273 1.092 4.103 3.096 5.24 2.378m3.405-1.566c1.364-1.097 3.717-3.741 4.903-7.29m.727-4.369c.002 1.562-.28 3.03-.727 4.369m.727-4.369a17.03 17.03 0 0 0 .507-1.76m-1.234 6.129 4.046-7.135m0 0-2.813 1.006m2.813-1.006a19.974 19.974 0 0 0-.2-2.863m.2 2.863a19.72 19.72 0 0 1-.367 3.763m.166-6.626a10.796 10.796 0 0 1 2.305-.073m-.53 25.745c.742-1.226 1.016-2.55 1.025-3.69m-1.025 3.69c8.537-2.708 12.1-7.785 13.295-12.075M78.42 119.759c-1.531.013-3.423-1.848-4.177-2.781m4.177 2.781c1.085.381 3.725.324 5.604-2.959m-9.781.178c.47-.396.915-.817 1.322-1.261m14.517-17.778a17.768 17.768 0 0 1 3.67 3.488m-3.67-3.488c.581 3.241.652 8.852-1.697 12.998m1.697-12.998c-.75-.53-1.51-.973-2.262-1.342m2.263 1.342c.219.14.443.33.65.573m-8.27 18.546c.444.004.974-.073 1.56-.258m9.728-15.373c.465.585.914 1.22 1.342 1.907.24 1.351.22 3.252-.36 5.339m-.982-7.246c-2.026 10.537-6.66 14.412-9.727 15.373m9.727-15.373c0-3.9-.828-6.636-2.04-8.52m-13.667 13.24a19.182 19.182 0 0 0 1.453-4.445m-1.453 4.445a20.002 20.002 0 0 1-2.07 3.456m2.07-3.456c.709 1.287 2.063 2.885 3.834 3.534m6.507-2.35c0-6.193-5.925-6.333-8.888-5.629m8.888 5.629c-.537 2.683-3.637 4.919-5.12 5.702m5.12-5.702c-2.444 2.681-4.694 3.013-6.507 2.35m6.507-2.35c1.69-1.856 2.583-3.45 2.966-4.779m-2.966 4.779c.335-2.927.536-9.242-1.342-11.09m-5.075-1.238c-.182 5.825-1.635 16.901-5.994 14.6m5.994-14.6c.437.029.9.08 1.385.16m0 0a227.937 227.937 0 0 0-.566 4.453m.566-4.453c1.14.187 2.397.526 3.69 1.078m-3.754 9.906c.16 1.696.283 4.646-.023 6.886m-1.388-3.352c1.386-1.536 4.628-3.436 6.507 1.256m-6.507-1.256c.154-3.051.524-6.785.91-10.065m5.597 11.321c.877 1.285 3.376 2.632 6.348-2.264m-3.382-6.121c.547-1.891.061-3.243-.618-4.04m.618 4.04c1.209 0 2.952.316 4.413 1.242m2.683 6.01c.287-3.094-1.014-4.951-2.683-6.01m-12.977-4.178h7.295l-3.04-3.375m0 0c.259.11.518.229.778.356m-.777-.356a7.147 7.147 0 0 0-1.373-2.663m-6.2-2.925c1.524.032 4.373.711 6.2 2.925m-7.393-5.267a27.082 27.082 0 0 0-.178-1.106m.178 1.106a8.018 8.018 0 0 1 2.777-.143m6.766 8.43c-.35-4.026-1.931-6.258-3.796-7.411m-5.925-1.982c2.09-1.233 6.21-2.543 10.057-1.006m4.59 3.736c-1.363-1.912-2.952-3.082-4.59-3.736m-5.81-2.684c1.566.451 4.697 2.366 4.697 6.42 1.345 1.251 3.966 4.718 3.69 8.577m-6.71-9.325a7.304 7.304 0 0 0-2.969-1.019m2.97 1.019c2.084-.301 5.507.332 7.687 3.72m-12.718-7.615c1.565-1.934 6.373-4.46 13.081.907m-13.081-.907c.8.65 1.526 1.58 2.061 2.876m4.647-6.544 2.455 4.575m-7.102 1.97c1.143-1.381 3.873-2.764 7.102.212m2.576 3.242c-.879-1.42-1.744-2.476-2.576-3.242m-2.486 5.197c1.687-.397 5.666-.636 8.081 1.585m0 0c2.415 2.22 2.348 6.68 2.013 8.631m-2.013-8.631c.895 2.088 2.617 5.365 2.348 1.77-.161-2.165-1.229-3.239-2.348-3.717m0 1.947c2.013.112 6.105 1.294 6.373 5.124m-8.413-7.38a4.158 4.158 0 0 1 2.04.31m-5.595-4.836c1.149-.115 3.264.276 4.59 2.245m1.005 2.59c-.199-1.072-.557-1.922-1.006-2.59m0 0c.672-.144 2.283.17 3.354 2.59" stroke="#0F6FDE" stroke-width="1.342" stroke-linecap="round" stroke-linejoin="round"></path><path d="M58.196 126.115c29.517-2.348 45.283-2.348 74.13-.671.894 1.006-12.68 2.549-74.13.671Z" fill="#0F6FDE" stroke="#0F6FDE" stroke-width="1.342" stroke-linecap="round" stroke-linejoin="round"></path>
</svg>